<svg width="76" height="76" viewBox="0 0 76 76" fill="none" xmlns="http://www.w3.org/2000/svg">
<path d="M51.125 26.2812L33 44.5625L24.7188 36.2812C23.7812 35.3438 22.0625 35.3438 21.125 36.2812C20.1875 37.2188 20.1875 38.9375 21.125 39.875L31.125 49.875C31.5938 50.3438 32.2188 50.5 33 50.5C33.625 50.5 34.25 50.3438 34.7188 49.875L54.7188 29.875C55.6562 28.9375 55.6562 27.2188 54.7188 26.2812C53.7812 25.3438 52.0625 25.3438 51.125 26.2812ZM38 0.5C17.2188 0.5 0.5 17.375 0.5 38C0.5 58.7812 17.2188 75.5 38 75.5C58.625 75.5 75.5 58.7812 75.5 38C75.5 17.375 58.625 0.5 38 0.5ZM38 70.5C20.0312 70.5 5.5 55.9688 5.5 38C5.5 20.1875 20.0312 5.5 38 5.5C55.8125 5.5 70.5 20.1875 70.5 38C70.5 55.9688 55.8125 70.5 38 70.5Z" fill="#00AC6B"/>
</svg>
