<svg width="16" height="16" viewBox="0 0 16 16" fill="none" xmlns="http://www.w3.org/2000/svg">
<path d="M8 0.5C3.84375 0.5 0.5 3.875 0.5 8C0.5 12.1562 3.84375 15.5 8 15.5C12.125 15.5 15.5 12.1562 15.5 8C15.5 3.875 12.125 0.5 8 0.5ZM8.28125 14C8.28125 13.75 8.0625 13.5312 7.8125 13.5312H7.15625C6.84375 13.5312 6.34375 13.375 6.0625 13.1562L5.375 12.625C5 12.375 4.8125 11.9375 4.8125 11.5V10.75C4.8125 10.25 5.0625 9.78125 5.5 9.53125L6.84375 8.71875C7.0625 8.59375 7.3125 8.53125 7.5625 8.53125H8.53125C8.875 8.53125 9.21875 8.65625 9.46875 8.875L10.8125 10.0312H11.375C11.6562 10.0312 11.9062 10.125 12.0938 10.3125L12.625 10.875C12.75 10.9688 12.875 11.0312 13.0312 11.0312H13.1562C12.1875 12.7188 10.375 13.9062 8.28125 14ZM4.40625 4.4375L5.1875 3.625C5.25 3.5625 5.34375 3.53125 5.4375 3.53125C5.65625 3.53125 5.8125 3.6875 5.8125 3.875V4.375C5.8125 4.46875 5.75 4.5625 5.6875 4.625L5.40625 4.9375C5.34375 5 5.25 5.03125 5.15625 5.03125H4.65625C4.46875 5.03125 4.3125 4.875 4.3125 4.6875C4.3125 4.59375 4.34375 4.5 4.40625 4.4375ZM13.25 10.0312C13.125 10.0312 13 9.96875 12.9062 9.875L11.9062 8.84375C11.75 8.71875 11.75 8.46875 11.9062 8.34375L12.3125 7.9375V7.6875C12.3125 7.59375 12.25 7.5 12.1875 7.4375L11.9062 7.125C11.8438 7.0625 11.75 7.03125 11.6562 7.03125H11.1562C10.9688 7.03125 10.8125 6.875 10.8125 6.6875C10.8125 6.59375 10.8438 6.5 10.9062 6.4375L11.1875 6.125C11.25 6.0625 11.3438 6.03125 11.4375 6.03125H12.4375C12.625 6.03125 12.8125 5.875 12.8125 5.6875V5.375C12.8125 5.1875 12.625 5.03125 12.4375 5.03125H11.3125C11.0312 5.03125 10.8125 5.25 10.8125 5.53125V5.65625C10.8125 5.875 10.6562 6.0625 10.4688 6.15625L9.46875 6.46875C9.375 6.5 9.3125 6.59375 9.3125 6.71875V6.78125C9.3125 6.90625 9.1875 7.03125 9.0625 7.03125H8.5625C8.40625 7.03125 8.3125 6.90625 8.3125 6.78125C8.3125 6.625 8.1875 6.53125 8.0625 6.53125H7.96875C7.875 6.53125 7.78125 6.59375 7.71875 6.65625L7.4375 7.25C7.34375 7.40625 7.1875 7.53125 7 7.53125H6.28125C6.03125 7.53125 5.8125 7.3125 5.8125 7.03125V6.21875C5.8125 6.09375 5.84375 5.96875 5.9375 5.875L6.5625 5.25C6.71875 5.09375 6.78125 4.90625 6.78125 4.71875C6.78125 4.59375 6.875 4.5 6.96875 4.46875L8.21875 4.0625C8.28125 4.03125 8.3125 4 8.34375 3.96875L9.1875 3.125C9.25 3.0625 9.3125 2.96875 9.3125 2.875C9.3125 2.6875 9.125 2.53125 8.9375 2.53125H8.3125L7.78125 3.03125V3.28125C7.78125 3.40625 7.6875 3.53125 7.53125 3.53125H7.03125C6.90625 3.53125 6.78125 3.40625 6.78125 3.28125V2.65625C6.78125 2.5625 6.84375 2.5 6.90625 2.4375L7.4375 2.03125C7.625 2.03125 7.8125 2 8 2C11.2812 2 14 4.71875 14 8C14 8.71875 13.8438 9.40625 13.625 10.0312H13.25Z" fill="#6C6C84"/>
</svg>
