<svg width="12" height="9" viewBox="0 0 12 9" fill="none" xmlns="http://www.w3.org/2000/svg">
<path d="M10.5 0H1.5C0.65625 0 0 0.679688 0 1.5V7.5C0 8.34375 0.65625 9 1.5 9H10.5C11.3203 9 12 8.34375 12 7.5V1.5C12 0.679688 11.3203 0 10.5 0ZM1.5 1.125H10.5C10.6875 1.125 10.875 1.3125 10.875 1.5V2.03906L6.96094 5.29688C6.42188 5.74219 5.55469 5.74219 5.01562 5.29688L1.125 2.03906V1.5C1.125 1.3125 1.28906 1.125 1.5 1.125ZM10.5 7.875H1.5C1.28906 7.875 1.125 7.71094 1.125 7.5V3.49219L4.3125 6.16406C4.78125 6.53906 5.36719 6.77344 6 6.77344C6.60938 6.77344 7.19531 6.53906 7.66406 6.16406L10.875 3.49219V7.5C10.875 7.71094 10.6875 7.875 10.5 7.875Z" fill="#2B71F0"/>
</svg>
