<svg width="20" height="20" viewBox="0 0 20 20" fill="none" xmlns="http://www.w3.org/2000/svg">
<path d="M10 1.125C4.80469 1.125 0.625 5.34375 0.625 10.5C0.625 15.6953 4.80469 19.875 10 19.875C15.1562 19.875 19.375 15.6953 19.375 10.5C19.375 5.34375 15.1562 1.125 10 1.125ZM10 5.5C10.6641 5.5 11.25 6.08594 11.25 6.75C11.25 7.45312 10.6641 8 10 8C9.29688 8 8.75 7.45312 8.75 6.75C8.75 6.08594 9.29688 5.5 10 5.5ZM11.5625 15.5H8.4375C7.89062 15.5 7.5 15.1094 7.5 14.5625C7.5 14.0547 7.89062 13.625 8.4375 13.625H9.0625V11.125H8.75C8.20312 11.125 7.8125 10.7344 7.8125 10.1875C7.8125 9.67969 8.20312 9.25 8.75 9.25H10C10.5078 9.25 10.9375 9.67969 10.9375 10.1875V13.625H11.5625C12.0703 13.625 12.5 14.0547 12.5 14.5625C12.5 15.1094 12.0703 15.5 11.5625 15.5Z" fill="#2B71F0"/>
</svg>
