<svg width="10" height="11" viewBox="0 0 10 11" fill="none" xmlns="http://www.w3.org/2000/svg">
<path d="M9.875 5.5C9.875 5.19531 9.61719 4.9375 9.3125 4.9375H5.5625V1.1875C5.5625 0.882812 5.30469 0.625 5 0.625C4.67188 0.625 4.4375 0.882812 4.4375 1.1875V4.9375H0.6875C0.359375 4.9375 0.125 5.19531 0.125 5.5C0.125 5.82812 0.359375 6.0625 0.6875 6.0625H4.4375V9.8125C4.4375 10.1406 4.67188 10.375 5 10.375C5.30469 10.375 5.5625 10.1406 5.5625 9.8125V6.0625H9.3125C9.61719 6.0625 9.875 5.82812 9.875 5.5Z" fill="#424263"/>
</svg>
