<svg width="20" height="20" viewBox="0 0 20 20" fill="none" xmlns="http://www.w3.org/2000/svg">
<path d="M10 1.125C4.80469 1.125 0.625 5.34375 0.625 10.5C0.625 15.6953 4.80469 19.875 10 19.875C15.1562 19.875 19.375 15.6953 19.375 10.5C19.375 5.34375 15.1562 1.125 10 1.125ZM14.4922 8.78125L9.49219 13.7812C9.29688 14.0156 9.02344 14.0938 8.75 14.0938C8.4375 14.0938 8.16406 14.0156 7.96875 13.7812L5.46875 11.2812C5.03906 10.8516 5.03906 10.1875 5.46875 9.75781C5.89844 9.32812 6.5625 9.32812 6.99219 9.75781L8.75 11.4766L12.9688 7.25781C13.3984 6.82812 14.0625 6.82812 14.4922 7.25781C14.9219 7.6875 14.9219 8.35156 14.4922 8.78125Z" fill="#00AC6B"/>
</svg>
