<svg width="18" height="16" viewBox="0 0 18 16" fill="none" xmlns="http://www.w3.org/2000/svg">
<path d="M17.75 8.5C17.75 8.1875 17.4375 7.875 17.125 7.875H2.90625L8.17969 2.05469C8.41406 1.82031 8.41406 1.42969 8.14062 1.19531C7.90625 0.960938 7.51562 0.960938 7.28125 1.23438L1.03125 8.10938C0.796875 8.34375 0.796875 8.69531 1.03125 8.92969L7.28125 15.8047C7.39844 15.9609 7.55469 16 7.75 16C7.86719 16 8.02344 15.9609 8.14062 15.8438C8.41406 15.6094 8.41406 15.2188 8.17969 14.9844L2.90625 9.125H17.125C17.4375 9.125 17.75 8.85156 17.75 8.5Z" fill="#14357A"/>
</svg>
